<?xml version="1.0" encoding="UTF-8" standalone="no"?>
<!DOCTYPE svg PUBLIC "-//W3C//DTD SVG 1.1//EN" "http://www.w3.org/Graphics/SVG/1.1/DTD/svg11.dtd">
<svg width="100%" height="100%" viewBox="0 0 1000 1000" version="1.1" xmlns="http://www.w3.org/2000/svg" xmlns:xlink="http://www.w3.org/1999/xlink" xml:space="preserve" xmlns:serif="http://www.serif.com/" style="fill-rule:evenodd;clip-rule:evenodd;stroke-linejoin:round;stroke-miterlimit:2;">
    <g transform="matrix(1,0,0,1,-33.2657,4.44596)">
        <g transform="matrix(1,0,0,1,-1,0)">
            <path d="M936.41,148.325C955.188,148.325 970.41,163.548 970.41,182.325L970.41,916.818C970.41,935.595 955.188,950.818 936.41,950.818L776.79,950.818C758.012,950.818 742.79,935.595 742.79,916.818L742.79,148.325L936.41,148.325Z" style="fill:url(#_Linear1);"/>
        </g>
        <g transform="matrix(1,0,0,1,1,0)">
            <path d="M383.101,40.307C383.101,40.307 158.016,265.139 106.526,316.572C99.864,323.226 96.121,332.255 96.121,341.671C96.121,372.216 96.121,443.219 96.121,485.773C96.121,494.791 99.703,503.439 106.08,509.815C112.456,516.191 121.104,519.773 130.121,519.773L230.724,519.773C236.028,519.773 241.115,517.666 244.866,513.915C271.877,486.904 383.101,375.681 383.101,375.681L383.101,40.307Z" style="fill:url(#_Linear2);"/>
        </g>
        <path d="M383.101,40.307L553.91,40.307C562.927,40.307 571.575,43.889 577.951,50.265C584.327,56.641 587.91,65.289 587.91,74.307C587.91,212.261 587.91,722.905 587.91,722.905L416.795,722.905C407.775,722.905 399.125,719.32 392.748,712.941C386.371,706.561 382.791,697.909 382.795,688.889C382.86,550.911 383.101,40.307 383.101,40.307Z" style="fill:url(#_Linear3);"/>
        <path d="M742.79,580.869C742.79,580.869 633.772,689.887 607.053,716.606C603.302,720.357 598.215,722.464 592.91,722.464L416.779,722.464C407.762,722.464 399.114,718.882 392.738,712.506C386.361,706.13 382.779,697.481 382.779,688.464L382.779,538.986L742.79,148.325" style="fill:url(#_Linear4);"/>
    </g>
    <defs>
        <linearGradient id="_Linear1" x1="0" y1="0" x2="1" y2="0" gradientUnits="userSpaceOnUse" gradientTransform="matrix(4.91385e-14,-802.492,802.492,4.91385e-14,856.6,950.818)"><stop offset="0" style="stop-color:rgb(30,162,194);stop-opacity:1"/><stop offset="1" style="stop-color:rgb(6,128,171);stop-opacity:1"/></linearGradient>
        <linearGradient id="_Linear2" x1="0" y1="0" x2="1" y2="0" gradientUnits="userSpaceOnUse" gradientTransform="matrix(287.109,-287.109,287.109,287.109,95.9911,519.773)"><stop offset="0" style="stop-color:rgb(2,88,156);stop-opacity:1"/><stop offset="1" style="stop-color:rgb(4,100,161);stop-opacity:1"/></linearGradient>
        <linearGradient id="_Linear3" x1="0" y1="0" x2="1" y2="0" gradientUnits="userSpaceOnUse" gradientTransform="matrix(2.41922e-14,395.088,-395.088,2.41922e-14,485.344,40.3067)"><stop offset="0" style="stop-color:rgb(3,102,162);stop-opacity:1"/><stop offset="1" style="stop-color:rgb(4,109,158);stop-opacity:1"/></linearGradient>
        <linearGradient id="_Linear4" x1="0" y1="0" x2="1" y2="0" gradientUnits="userSpaceOnUse" gradientTransform="matrix(360.01,-360.01,360.01,360.01,382.779,722.464)"><stop offset="0" style="stop-color:rgb(4,116,167);stop-opacity:1"/><stop offset="1" style="stop-color:rgb(7,127,171);stop-opacity:1"/></linearGradient>
    </defs>
</svg>
